<svg width="200" height="200" viewBox="0 0 200 200" xmlns="http://www.w3.org/2000/svg">
  <defs>
    <linearGradient id="spiralGradient" x1="0%" y1="0%" x2="100%" y2="100%">
      <stop offset="0%" style="stop-color:rgb(255,0,0);stop-opacity:1" />
      <stop offset="100%" style="stop-color:rgb(0,0,255);stop-opacity:1" />
    </linearGradient>
  </defs>
  <path d="M100 100 A10 10 0 0 1 110 100 A20 20 0 0 1 100 120 A30 30 0 0 1 70 100 A40 40 0 0 1 100 60 A50 50 0 0 1 150 100 A60 60 0 0 1 100 160 A70 70 0 0 1 30 100 A80 80 0 0 1 100 20"
        fill="none" stroke="url(#spiralGradient)" stroke-width="3" stroke-linecap="round"/>
</svg>